<?xml version="1.0" encoding="UTF-8" standalone="no"?>
<!DOCTYPE svg PUBLIC "-//W3C//DTD SVG 1.1//EN" "http://www.w3.org/Graphics/SVG/1.1/DTD/svg11.dtd">
<svg width="100%" height="100%" viewBox="0 0 502 502" version="1.1" xmlns="http://www.w3.org/2000/svg" xmlns:xlink="http://www.w3.org/1999/xlink" xml:space="preserve" xmlns:serif="http://www.serif.com/" style="fill-rule:evenodd;clip-rule:evenodd;stroke-miterlimit:1;">
    <path id="OneHand" d="M96.457,431.839c0,-18.194 2.661,-35.988 2.661,-53.93c0,-1.246 1.498,2.001 2.379,2.882c1.727,1.727 3.428,3.879 5.496,5.228c6.019,3.925 10.826,12.343 15.141,18.155c13.827,18.625 31.339,33.244 47.405,49.31" style="fill:none;stroke:black;stroke-width:6px;"/>
    <g id="Hand">
        <g>
            <path d="M160.506,314.322c-1.994,8.274 1.432,11.352 6.792,16.224c5.302,4.808 45.656,-19.838 58.076,-22.651c12.411,-2.815 125.842,-8.628 124.101,-29.658c-1.738,-21.038 -34.572,-29.009 -60.813,-28.688c-26.26,0.318 -78.514,14.514 -94.589,23.987c-16.064,9.483 -33.567,40.786 -33.567,40.786" style="fill:rgb(183,139,96);fill-rule:nonzero;"/>
            <path d="M240.627,340.202c0,0 -35.461,5.443 -39.534,32.727c-4.074,27.284 1.878,43.913 4.681,51.955c2.793,8.041 13.879,17.097 31.764,12.654c20.759,-5.166 3.474,-55.301 62.136,-24.723c26.867,14.006 54.288,31.619 84.23,26.793c28.406,-4.583 43.71,-35.581 46.426,-53.77c5.558,-37.224 -24.511,-31.551 -35.397,-23.88c-10.886,7.672 -89.828,14.479 -99.356,13.056c-9.528,-1.422 -54.95,-34.812 -54.95,-34.812" style="fill:rgb(183,139,96);fill-rule:nonzero;"/>
        </g>
        <path d="M276.533,392.505c0,0 0.644,-12.139 -11.106,-15.316c-9.654,-2.603 -25.604,-1.786 -35.937,12.355c-10.334,14.151 -24.245,9.462 -25.554,22.338c-1.319,12.875 1.37,23.447 9.62,27.292c8.251,3.844 21.136,1.12 24.669,-12.298c3.522,-13.411 7.173,-25.659 17.211,-29.673c10.038,-4.025 21.097,-4.698 21.097,-4.698" style="fill:rgb(204,155,122);fill-rule:nonzero;"/>
        <path d="M266.992,370.748c0,0 -8.17,-10.517 -27.226,-13.363c-19.056,-2.845 -66.393,9.918 -58.68,50.508c5.455,28.706 34.462,19.965 42.363,-6.458c7.914,-26.459 43.543,-30.687 43.543,-30.687" style="fill:rgb(183,139,96);fill-rule:nonzero;"/>
        <path d="M257.464,369.325c0,0 -8.171,-10.517 -27.227,-13.362c-19.056,-2.846 -48.622,6.965 -55.788,47.453c-5.861,33.116 35.692,23.924 39.47,-3.404c3.778,-27.328 43.545,-30.687 43.545,-30.687" style="fill:rgb(204,155,122);fill-rule:nonzero;"/>
        <path d="M141.767,361.347c-4.477,29.985 -2.823,48.724 16.417,48.445c31.911,-0.46 25.599,-39.075 54.397,-45.375c20.923,-4.564 49.467,1.538 74.919,21.442c16.773,13.112 10.792,-29.032 -6.906,-40.972c-17.698,-11.94 -76.225,-11.382 -85.754,-12.804c-9.528,-1.423 -53.073,29.264 -53.073,29.264" style="fill:rgb(183,139,96);fill-rule:nonzero;"/>
        <path d="M140.025,362.705c-18.778,21.973 -13.305,48.405 14.009,46.96c26.42,-1.392 18.314,-35.106 46.26,-48.877c15.657,-7.722 46.726,-6.457 64.424,5.482c17.699,11.94 24.046,-10.866 6.347,-22.806c-17.699,-11.94 -81.337,-12.377 -90.93,-13.233c-18.36,-1.635 -40.11,32.474 -40.11,32.474" style="fill:rgb(204,155,122);fill-rule:nonzero;"/>
        <g>
            <path d="M180.993,386.858c-7.527,6.11 -18.89,5.166 -25.39,-2.117l-1.626,-1.833c-6.5,-7.283 -5.669,-18.139 1.867,-24.247l249.642,-202.752c7.528,-6.118 18.9,-5.174 25.391,2.108l1.625,1.842c6.51,7.285 5.668,18.14 -1.858,24.249l-249.651,202.75Z" style="fill:rgb(59,136,195);fill-rule:nonzero;"/>
            <path d="M192.874,377.216c-26.16,21.243 -90.083,61.011 -96.375,53.962c-6.291,-7.057 45.068,-60.917 71.218,-82.162c26.161,-21.252 16.562,-2.566 23.512,5.231c6.941,7.787 27.794,1.733 1.645,22.969" style="fill:rgb(59,136,195);fill-rule:nonzero;"/>
        </g>
        <path d="M160.379,345.774c-1.358,9.095 20.468,20.86 31.354,13.189c10.885,-7.672 34.857,-15.5 62.439,0.574c64.546,37.613 44.12,-2.71 16.894,-16.072c-27.227,-13.363 -76.226,-11.381 -85.754,-12.804c-9.529,-1.423 -24.933,15.113 -24.933,15.113" style="fill:rgb(183,139,96);fill-rule:nonzero;"/>
        <path d="M159.884,317.967c-1.899,-10.632 30.733,-63.086 43.015,-70.131c15.467,-8.866 71.524,-17.798 90.58,-14.953c19.056,2.845 146.356,89.294 139.567,134.766c-6.79,45.473 -26.695,48.311 -55.149,51.324c-22.755,2.413 -68.122,-7.922 -85.509,-28.74c-15.226,-18.255 -25.828,-30.883 -41.737,-40.52c-29.495,-17.866 -53.009,-3.973 -63.896,3.699c-21.773,15.344 -54.743,-9.652 -20.16,-36.293c24.764,-19.072 44.685,-23.191 63.618,-26.24c59.886,-9.653 97.999,-3.963 81.657,-24.996c-5.776,-7.436 -10.875,1.593 -20.493,1.82c-19.355,0.458 -34.698,0.407 -60.749,4.615c-8.992,1.447 -53.375,20.136 -70.744,45.649" style="fill:rgb(213,171,136);fill-rule:nonzero;"/>
        <path d="M234.424,275.47c10.665,-2.015 56.003,-3.092 80.13,-7.262c19.49,-3.385 34,10.989 -3.135,18.386c-35.849,7.133 -71.04,0.857 -98.263,6.778c-10.299,2.235 -17.011,-10.677 21.268,-17.902" style="fill:rgb(183,139,96);fill-rule:nonzero;"/>
        <path d="M334.156,213.64c0,0 -65.71,53.363 -93.594,75.846c22.736,-5.224 41.705,-0.756 61.615,-8.326c19.899,-7.562 29.916,-17.307 62.329,-43.632c12.029,-9.779 -30.35,-23.888 -30.35,-23.888" style="fill:rgb(59,136,195);fill-rule:nonzero;"/>
    </g>
    <path id="Rectangle" d="M208.554,54.811c0,-13.606 -11.046,-24.653 -24.653,-24.653l-125.764,0c-13.607,0 -24.653,11.047 -24.653,24.653l0,49.307c0,13.606 11.046,24.653 24.653,24.653l125.764,0c13.607,0 24.653,-11.047 24.653,-24.653l0,-49.307Z" style="fill:none;stroke:black;stroke-width:6px;stroke-linejoin:round;stroke-miterlimit:1.5;stroke-dasharray:18,6,0,0;"/>
    <text id="OneFont" x="91.741px" y="110.592px" style="font-family:'Courier';font-size:100px;">1</text>
</svg>
