<?xml version="1.0" encoding="UTF-8" standalone="no"?><!DOCTYPE svg PUBLIC "-//W3C//DTD SVG 1.1//EN" "http://www.w3.org/Graphics/SVG/1.1/DTD/svg11.dtd"><svg width="100%" height="100%" viewBox="0 0 502 502" version="1.1" xmlns="http://www.w3.org/2000/svg" xmlns:xlink="http://www.w3.org/1999/xlink" xml:space="preserve" xmlns:serif="http://www.serif.com/" style="fill-rule:evenodd;clip-rule:evenodd;stroke-linejoin:round;stroke-miterlimit:1.41421;"><g><g><path d="M73.262,307.44c-1.158,13.071 4.767,16.985 14.051,23.194c9.178,6.124 65.103,-40.647 83.402,-47.764c18.285,-7.118 189.933,-41.809 182.491,-73.481c-7.442,-31.686 -59.326,-36.365 -99.267,-29.901c-39.972,6.465 -116.423,40.009 -138.778,58.114c-22.337,18.119 -41.899,69.838 -41.899,69.838" style="fill:#b78b60;fill-rule:nonzero;"/><path d="M201.33,328.662c0,0 -52.834,16.375 -52.834,58.908c0,42.533 12.863,66.534 18.967,78.16c6.09,11.626 25.058,22.911 51.319,12.064c30.479,-12.604 -7.294,-85.12 89.122,-51.847c44.159,15.241 89.983,35.854 134.543,21.678c42.274,-13.455 58.553,-64.21 58.553,-92.565c0,-58.027 -44.56,-42.532 -59.414,-28.355c-14.854,14.177 -133.682,42.532 -148.536,42.532c-14.853,0.001 -91.72,-40.575 -91.72,-40.575" style="fill:#b78b60;fill-rule:nonzero;"/></g><path d="M267.992,400.245c0,0 -1.782,-18.658 -20.423,-20.827c-15.313,-1.772 -39.45,3.105 -51.987,27.022c-12.537,23.932 -34.817,19.948 -33.881,39.881c0.92,19.933 7.427,35.443 20.884,39.428c13.457,3.984 32.484,-3.105 34.817,-24.37c2.317,-21.252 5.095,-40.76 19.488,-49.167c14.392,-8.424 31.102,-11.967 31.102,-11.967" style="fill:#cc9b7a;fill-rule:nonzero;"/><path d="M248.49,369.239c0,0 -14.854,-14.178 -44.561,-14.178c-29.706,0 -98.985,30.241 -77.98,90.381c14.853,42.531 57.096,22.598 63.128,-19.494c6.044,-42.15 59.413,-56.709 59.413,-56.709" style="fill:#b78b60;fill-rule:nonzero;"/><path d="M233.636,369.239c0,0 -14.854,-14.178 -44.561,-14.178c-29.706,0 -72.559,21.692 -74.268,85.065c-1.396,51.832 59.875,28.355 59.415,-14.178c-0.461,-42.533 59.414,-56.709 59.414,-56.709" style="fill:#cc9b7a;fill-rule:nonzero;"/><path d="M55.393,383.415c0,46.744 6.789,74.942 36.064,70.136c48.557,-7.967 30.139,-65.414 72.62,-81.577c30.865,-11.724 75.782,-8.918 119.126,15.638c28.562,16.176 9.847,-46.728 -19.86,-60.906c-29.706,-14.178 -118.828,0 -133.682,0c-14.854,0 -74.268,56.709 -74.268,56.709" style="fill:#b78b60;fill-rule:nonzero;"/><path d="M53.046,385.883c-23.632,37.783 -9.269,76.841 32.054,68.419c39.971,-8.138 19.933,-57.702 59.414,-85.064c22.117,-15.34 69.782,-20.487 99.489,-6.309c29.707,14.178 34.193,-22.045 4.485,-36.223c-29.707,-14.178 -126.849,-0.354 -141.673,0.525c-28.369,1.687 -53.769,58.652 -53.769,58.652" style="fill:#cc9b7a;fill-rule:nonzero;"/><g><path d="M121.016,413.387c-10.086,11.03 -27.628,12.177 -39.198,2.552l-2.897,-2.425c-11.571,-9.626 -12.774,-26.37 -2.674,-37.401l334.518,-366.016c10.086,-11.044 27.642,-12.193 39.198,-2.566l2.897,2.439c11.586,9.627 12.774,26.37 2.688,37.4l-334.532,366.017Z" style="fill:#3b88c3;fill-rule:nonzero;"/><path d="M136.939,395.977c-35.055,38.35 -123.477,113.547 -134.676,104.231c-11.2,-9.329 54.854,-103.155 89.893,-141.504c35.055,-38.364 24.671,-7.685 37.044,2.623c12.358,10.293 42.779,-3.686 7.739,34.65" style="fill:#3b88c3;fill-rule:nonzero;"/></g><path d="M80.229,355.43c0,14.178 35.961,27.149 50.814,12.973c14.852,-14.176 49.625,-31.573 95.345,-13.34c106.99,42.66 66.662,-14.178 22.102,-28.356c-44.561,-14.177 -118.829,0 -133.683,0c-14.853,0 -34.578,28.723 -34.578,28.723" style="fill:#b78b60;fill-rule:nonzero;"/><path d="M73.143,313.139c-5.318,-15.779 32.5,-103.197 49.625,-116.737c21.568,-17.041 105.015,-43.425 134.722,-43.425c29.706,0 243.51,102.842 243.51,173.729c0,70.887 -29.708,79.748 -72.412,90.82c-34.149,8.861 -105.683,3.431 -136.935,-24.356c-27.375,-24.371 -46.418,-41.214 -72.871,-52.286c-49.046,-20.529 -81.739,6.011 -96.593,20.188c-29.708,28.356 -85.676,-2.254 -39.006,-50.754c33.421,-34.72 62.861,-45.537 91.037,-54.498c89.122,-28.355 148.536,-28.355 118.829,-56.709c-10.502,-10.023 -16.221,4.906 -30.836,7.443c-29.41,5.104 -52.819,8.52 -91.587,20.869c-13.382,4.253 -76.807,42.858 -97.483,85.716" style="fill:#d5ab88;fill-rule:nonzero;"/><path d="M177.133,231.364c15.804,-5.501 84.695,-17.466 120.537,-29.318c28.949,-9.599 54.349,9.016 -0.594,28.751c-53.042,19.04 -108.134,17.481 -148.298,32.708c-15.196,5.754 -28.371,-12.407 28.355,-32.141" style="fill:#b78b60;fill-rule:nonzero;"/><path d="M315.137,114.372c0,0 -88.051,96.335 -125.453,136.968c33.48,-13.143 63.424,-10.648 92.062,-26.725c28.622,-16.062 41.679,-33.203 85.111,-80.725c16.116,-17.652 -51.72,-29.518 -51.72,-29.518" style="fill:#3b88c3;fill-rule:nonzero;"/></g></svg>
